<?xml version="1.0" encoding="UTF-8"?>
<svg xmlns="http://www.w3.org/2000/svg" width="1024" height="1024" viewBox="0 0 927 1014" role="img" aria-label="FINANCE LOG logo">
  <title>FINANCE LOG logo</title>
  <path d="M 684 308 L 404 308 L 385 312 L 359 323 L 341 335 L 320 356 L 304 381 L 297 398 L 292 417 L 290 435 L 290 752 L 292 763 L 298 777 L 310 791 L 325 800 L 340 804 L 399 804 L 405 800 L 407 796 L 407 639 L 410 631 L 416 625 L 425 621 L 554 621 L 567 619 L 576 616 L 596 605 L 608 594 L 624 571 L 631 553 L 635 527 L 635 513 L 634 510 L 631 508 L 408 508 L 407 507 L 407 453 L 409 446 L 413 439 L 424 429 L 431 426 L 442 424 L 617 424 L 635 419 L 656 406 L 669 392 L 679 375 L 684 361 L 687 345 L 687 311 Z
M 67 533 L 53 564 L 45 589 L 40 612 L 38 628 L 38 667 L 41 687 L 45 703 L 53 725 L 62 743 L 73 760 L 89 779 L 103 792 L 135 814 L 174 832 L 202 841 L 232 848 L 252 855 L 268 863 L 282 872 L 316 899 L 341 915 L 368 926 L 390 930 L 409 929 L 432 922 L 463 905 L 524 860 L 554 841 L 569 834 L 592 827 L 606 825 L 608 823 L 620 798 L 632 767 L 608 767 L 592 769 L 566 775 L 539 785 L 523 793 L 499 808 L 425 864 L 409 872 L 397 874 L 387 872 L 371 864 L 317 826 L 281 806 L 253 795 L 196 779 L 175 770 L 149 754 L 137 744 L 120 725 L 106 701 L 100 685 L 96 668 L 95 635 L 99 610 L 109 578 L 94 560 L 71 528 Z
M 610 106 L 580 77 L 552 58 L 518 43 L 503 39 L 478 35 L 446 35 L 425 38 L 409 42 L 392 48 L 373 57 L 341 79 L 313 107 L 299 125 L 280 155 L 254 207 L 236 249 L 209 318 L 193 352 L 171 388 L 140 427 L 140 430 L 169 475 L 172 477 L 194 453 L 216 425 L 234 398 L 258 352 L 300 250 L 320 208 L 346 165 L 362 145 L 380 128 L 402 113 L 420 105 L 433 101 L 451 98 L 473 98 L 487 100 L 510 107 L 535 121 L 550 133 L 564 147 L 574 160 L 578 162 L 604 155 L 639 149 L 637 143 L 625 125 Z
M 874 435 L 880 416 L 886 387 L 887 340 L 882 311 L 873 284 L 864 266 L 853 249 L 841 234 L 825 218 L 796 197 L 779 188 L 762 181 L 737 174 L 713 170 L 698 170 L 697 169 L 668 170 L 638 174 L 609 180 L 531 201 L 497 207 L 474 208 L 473 209 L 445 208 L 423 205 L 388 197 L 366 190 L 361 190 L 343 220 L 333 241 L 333 244 L 350 248 L 357 251 L 413 264 L 445 268 L 492 268 L 511 266 L 549 259 L 627 238 L 664 231 L 697 229 L 717 231 L 738 236 L 763 247 L 782 260 L 805 284 L 819 308 L 824 321 L 829 343 L 830 367 L 827 390 L 823 405 L 817 420 L 817 424 L 836 446 L 855 473 L 858 471 Z
M 224 170 L 186 176 L 145 190 L 111 210 L 88 230 L 78 241 L 64 260 L 48 291 L 38 326 L 36 339 L 35 365 L 36 366 L 37 387 L 43 415 L 57 453 L 72 482 L 106 533 L 181 628 L 206 666 L 227 703 L 236 717 L 244 726 L 243 656 L 237 627 L 230 606 L 212 571 L 160 506 L 125 456 L 109 426 L 103 411 L 97 391 L 94 373 L 94 347 L 98 327 L 106 306 L 112 295 L 123 280 L 139 264 L 159 250 L 185 238 L 218 230 L 230 200 L 244 170 Z
M 762 534 L 760 534 L 739 560 L 723 585 L 709 612 L 691 659 L 672 730 L 653 786 L 632 832 L 622 849 L 609 867 L 582 894 L 567 904 L 555 910 L 541 915 L 519 919 L 502 919 L 489 917 L 462 935 L 442 945 L 420 953 L 416 953 L 416 954 L 443 967 L 462 973 L 483 977 L 523 978 L 545 975 L 577 965 L 602 952 L 630 931 L 651 909 L 675 875 L 700 825 L 720 770 L 742 688 L 756 646 L 773 612 L 784 595 L 791 587 L 791 583 L 784 569 Z
M 740 383 L 738 383 L 731 410 L 729 427 L 730 453 L 754 480 L 777 509 L 794 534 L 809 560 L 821 587 L 829 614 L 833 640 L 833 662 L 830 681 L 825 697 L 817 714 L 809 726 L 782 753 L 768 762 L 745 772 L 723 834 L 736 833 L 756 829 L 784 819 L 802 810 L 816 801 L 829 791 L 848 772 L 864 750 L 879 719 L 886 696 L 891 659 L 890 629 L 887 608 L 882 587 L 869 550 L 853 517 L 831 482 L 804 447 L 775 415 Z" fill="currentColor" fill-rule="evenodd"/>
</svg>
